<?xml version="1.0" encoding="UTF-8"?>
<svg version="1.1" xmlns="http://www.w3.org/2000/svg" width="266" height="256">
<path d="M0 0 C87.78 0 175.56 0 266 0 C266 84.48 266 168.96 266 256 C178.22 256 90.44 256 0 256 C0 171.52 0 87.04 0 0 Z " fill="#FAF8EE" transform="translate(0,0)"/>
<path d="M0 0 C87.78 0 175.56 0 266 0 C266 84.48 266 168.96 266 256 C178.22 256 90.44 256 0 256 C0 171.52 0 87.04 0 0 Z M17 23 C10.48749846 33.23969766 8.69941587 42.81040199 8.70947266 54.71411133 C8.70275543 55.86494202 8.69603821 57.01577271 8.68911743 58.20147705 C8.67016928 61.99503949 8.66621384 65.78842446 8.6640625 69.58203125 C8.65925745 71.5656743 8.65444833 73.54931739 8.64914167 75.53295916 C8.63289069 81.774183 8.62796911 88.01534923 8.62939453 94.2565918 C8.63059033 100.64466969 8.60959401 107.03240666 8.5779072 113.42039853 C8.55151827 118.941846 8.54103681 124.46318387 8.54230535 129.98469371 C8.5428091 133.26558212 8.53554422 136.54610551 8.51594925 139.82694435 C8.40307227 160.69107569 10.16504041 178.91819867 19 198 C19.50144531 199.10859375 20.00289062 200.2171875 20.51953125 201.359375 C30.93012045 222.53517201 51.04416797 236.38055129 72.78735352 244.09814453 C83.87047801 247.82259142 94.71783585 248.39899941 106.3125 248.625 C107.94589074 248.66222327 109.57927291 248.69982403 111.21264648 248.73779297 C115.80820253 248.84053792 120.40393141 248.92405961 125 249 C126.04220703 249.01804688 127.08441406 249.03609375 128.15820312 249.0546875 C133.08775858 249.12766389 138.01098246 249.11820884 142.94042969 249.04150391 C145.28731435 249.00966778 147.63438047 248.99098024 149.98144531 248.97802734 C174.98295854 249.13988459 174.98295854 249.13988459 199 243 C200.04542969 242.59007812 201.09085938 242.18015625 202.16796875 241.7578125 C221.47325462 233.13801511 240.69622761 215.6155942 248.87890625 196.05078125 C253.93532313 182.2909848 257.30253268 169.33652658 257.29052734 154.58056641 C257.29724457 153.37918533 257.30396179 152.17780426 257.31088257 150.9400177 C257.32652689 147.67333924 257.33323168 144.40681415 257.33451414 141.14010286 C257.3359442 139.09197073 257.34022973 137.0438646 257.34550858 134.99573898 C257.36395886 127.83015014 257.37218522 120.66463525 257.37060547 113.49902344 C257.36940442 106.8517462 257.39051219 100.20479381 257.4220928 93.55759871 C257.44835677 87.82220983 257.4589686 82.08692644 257.45769465 76.35147798 C257.45718811 72.93840142 257.46269878 69.52561429 257.48405075 66.11259842 C257.50376419 62.30086934 257.49785096 58.48996657 257.48583984 54.67822266 C257.49707886 53.5682341 257.50831787 52.45824554 257.51989746 51.31462097 C257.42481177 39.37006631 253.91835911 29.04955327 246 20 C243.50551539 17.6378758 240.93415845 15.77827785 238 14 C237.38125 13.5875 236.7625 13.175 236.125 12.75 C228.67514518 8.55945666 219.27031775 8.92246637 211 10 C207.16854095 11.09542373 204.27528702 12.76242768 201 15 C199.99195313 15.61617187 198.98390625 16.23234375 197.9453125 16.8671875 C191.95775916 20.62953764 187.14453326 24.2437038 183 30 C183 30.66 183 31.32 183 32 C181.65401482 31.36295639 181.65401482 31.36295639 180.28083801 30.71304321 C170.80752646 26.44804879 162.38660095 25.12586537 152.01171875 25.2734375 C150.53253685 25.27447916 149.05335218 25.27342659 147.57417297 25.27041626 C144.50401401 25.2705938 141.43492635 25.29106266 138.36499023 25.32763672 C134.4570194 25.37321013 130.55059261 25.37404354 126.6424284 25.36060143 C123.59917283 25.35388044 120.55626108 25.36725546 117.51307106 25.38685989 C116.07278052 25.39447809 114.63245151 25.39689656 113.19214439 25.3936882 C105.5100901 25.39082301 99.08487708 25.67316192 92.13703918 29.14614868 C89.56028157 30.17568895 87.75183232 30.32034693 85 30 C82.3125 27.5 82.3125 27.5 80 25 C79.34 25 78.68 25 78 25 C77.76539062 24.4121875 77.53078125 23.824375 77.2890625 23.21875 C75.69684862 20.47821217 73.98827921 19.2799425 71.375 17.5 C70.55773437 16.9328125 69.74046875 16.365625 68.8984375 15.78125 C67.94195312 15.1934375 66.98546875 14.605625 66 14 C65.42072754 13.63970703 64.84145508 13.27941406 64.24462891 12.90820312 C58.7169278 9.77346436 53.90693587 9.36824277 47.625 9.5 C46.22737427 9.52139038 46.22737427 9.52139038 44.80151367 9.54321289 C32.80528437 9.91273255 24.93642108 13.79101485 17 23 Z " fill="#85C3CE" transform="translate(0,0)"/>
<path d="M0 0 C0.89489136 -0.00524185 1.78978271 -0.0104837 2.71179199 -0.0158844 C4.60130782 -0.02229963 6.4908636 -0.02097406 8.38037109 -0.01245117 C11.27123035 -0.00393576 14.1601169 -0.03271732 17.05078125 -0.06445312 C18.88802024 -0.06606512 20.72526273 -0.06548763 22.5625 -0.0625 C23.42613159 -0.07373398 24.28976318 -0.08496796 25.17956543 -0.09654236 C31.14253849 -0.02728068 31.14253849 -0.02728068 34.31445312 2.26147461 C36.58256661 5.62023054 36.51055415 7.45557109 35.78125 11.43359375 C33.20050947 15.3608076 29.83677875 18.51167624 26.3125 21.58984375 C21.69078561 25.6152125 21.69078561 25.6152125 19.03515625 30.98046875 C18.72151477 37.25329843 20.66667108 40.82918401 24.78125 45.43359375 C28.24053614 47.16323682 31.9921716 46.77745427 35.78125 46.43359375 C39.76803731 44.91481763 41.54659448 42.45769028 44.09375 39.18359375 C47.13349424 35.54389998 47.13349424 35.54389998 49.9375 35.06640625 C53.30015178 35.4440954 55.37050683 36.02285058 57.78125 38.43359375 C58.13835435 44.38533296 56.5621459 48.83520685 52.78125 53.43359375 C52.37003906 53.95953125 51.95882812 54.48546875 51.53515625 55.02734375 C46.99187197 60.27850519 41.40922876 61.81538508 34.67578125 62.71484375 C27.45549564 63.0607257 21.16569235 60.89136918 15.71875 56.24609375 C14.72705272 55.32185887 13.74289688 54.38905641 12.78125 53.43359375 C9.23086249 55.14127454 5.98726621 57.17557559 2.68359375 59.3125 C-3.22909795 62.79698155 -10.6074741 62.01399839 -17.21875 61.43359375 C-24.26307151 59.36391826 -29.59218615 55.05055353 -34.21875 49.43359375 C-35.76461876 46.34185623 -35.51234521 43.83929823 -35.21875 40.43359375 C-33.59375 37.99609375 -33.59375 37.99609375 -31.21875 36.43359375 C-28.33984375 36.05859375 -28.33984375 36.05859375 -25.21875 36.43359375 C-22.98046875 38.3671875 -22.98046875 38.3671875 -20.90625 40.87109375 C-17.88220445 44.10932127 -15.9263812 46.06798079 -11.46875 46.68359375 C-5.94678743 46.73152745 -3.41908811 44.55209062 0.53125 40.87109375 C3.72452806 36.91703471 3.67456251 32.34121809 3.78125 27.43359375 C3.24757812 27.20414063 2.71390625 26.9746875 2.1640625 26.73828125 C-0.96507626 25.02494954 -3.61650397 22.83461659 -6.34375 20.55859375 C-6.88128906 20.12417969 -7.41882813 19.68976563 -7.97265625 19.2421875 C-10.78678688 16.90526606 -13.07695883 14.96601019 -14.21875 11.43359375 C-14.3359375 9.3984375 -14.3359375 9.3984375 -14.09375 7.37109375 C-14.02929688 6.69949219 -13.96484375 6.02789062 -13.8984375 5.3359375 C-11.70235338 -0.81057381 -5.43670885 -0.01848035 0 0 Z " fill="#1B5470" transform="translate(122.21875,145.56640625)"/>
<path d="M0 0 C4.78263707 2.63956317 8.74280138 5.60960587 12.6875 9.375 C11.75788578 10.52724028 10.8184875 11.67159176 9.875 12.8125 C9.35292969 13.45058594 8.83085938 14.08867188 8.29296875 14.74609375 C6.6875 16.375 6.6875 16.375 3.6875 17.375 C3.39746094 17.96152344 3.10742188 18.54804687 2.80859375 19.15234375 C1.31174882 22.11995617 -0.74760209 23.76581547 -3.25 25.9375 C-6.72504808 28.94229288 -6.72504808 28.94229288 -10.00390625 32.15234375 C-11.3125 33.375 -11.3125 33.375 -13.3125 33.375 C-13.54195312 33.92800781 -13.77140625 34.48101562 -14.0078125 35.05078125 C-15.67967883 38.029106 -17.77956602 40.14384822 -20.1875 42.5625 C-21.05117188 43.44292969 -21.91484375 44.32335937 -22.8046875 45.23046875 C-25.14318813 47.23021462 -26.31769208 48.01980185 -29.3125 48.375 C-30.5300397 44.56195357 -30.49161231 40.75435086 -30.515625 36.79296875 C-30.52132507 36.06056473 -30.52702515 35.32816071 -30.53289795 34.57356262 C-30.54232481 33.0261885 -30.54887272 31.47879451 -30.55273438 29.93139648 C-30.56242433 27.5808553 -30.59346179 25.23119502 -30.625 22.88085938 C-30.6315326 21.37240099 -30.63678206 19.86393639 -30.640625 18.35546875 C-30.6529718 17.66043747 -30.6653186 16.96540619 -30.67803955 16.24931335 C-30.65305006 10.69313484 -29.5052487 5.92178625 -25.8125 1.6328125 C-17.82126874 -4.40223194 -8.91774825 -4.30163423 0 0 Z " fill="#5CAAB9" transform="translate(59.3125,32.625)"/>
<path d="M0 0 C3.71192144 3.02814644 7.21696589 6.62143178 9.375 10.9375 C9.47401946 13.67398687 9.51482822 16.38445782 9.5078125 19.12109375 C9.50876923 19.9324025 9.50972595 20.74371124 9.51071167 21.5796051 C9.51139271 23.29696734 9.50954372 25.01433215 9.50537109 26.73168945 C9.50002865 29.36089876 9.50531507 31.9899367 9.51171875 34.61914062 C9.51105782 36.28645871 9.50977635 37.95377669 9.5078125 39.62109375 C9.50983673 40.40866562 9.51186096 41.19623749 9.51394653 42.00767517 C9.50004608 45.24485953 9.40604833 47.844355 8.375 50.9375 C4.27594861 49.32715838 1.61325142 46.3591277 -1.375 43.25 C-5.28614164 39.2591476 -9.23034822 35.4174971 -13.484375 31.7890625 C-16.32955577 29.32808497 -19.10229786 26.79206221 -21.875 24.25 C-22.38289062 23.78585693 -22.89078125 23.32171387 -23.4140625 22.84350586 C-24.82455384 21.54892295 -26.2250392 20.24346343 -27.625 18.9375 C-28.39972656 18.21691406 -29.17445313 17.49632813 -29.97265625 16.75390625 C-31.625 14.9375 -31.625 14.9375 -31.8125 12.5625 C-28.95299168 6.24148161 -23.38236565 3.60951793 -17.1875 1.0625 C-11.07209361 -1.11405107 -6.23566494 -2.52395962 0 0 Z " fill="#63ADBB" transform="translate(227.625,31.0625)"/>
<path d="M0 0 C4.81489147 1.61667889 8.42469847 4.64179742 11 9 C12.27071091 14.62743405 12.27127068 18.56870056 10 24 C7.57622568 27.69194107 5.14409985 30.37594553 1.25 32.5 C-4.45886495 33.37828691 -9.7792019 33.25523371 -14.875 30.375 C-19.87986796 24.78132404 -21.89324974 20.33921876 -21.6640625 12.796875 C-20.4495206 7.68151031 -16.88900602 4.35797708 -13 1 C-9.04474536 -0.97762732 -4.31019688 -0.42863836 0 0 Z " fill="#173F5E" transform="translate(186,100)"/>
<path d="M0 0 C4.77159064 2.38579532 8.12070941 5.51169409 11 10 C12.46699924 16.16376294 10.54116294 21.43217801 7.5390625 26.82421875 C5.17305517 30.16905652 2.96014137 31.9144014 -1 33 C-6.0265184 33.74998846 -9.76468025 33.59478358 -14.375 31.375 C-19.58524221 26.66097133 -21.73045768 22.49027068 -22.16015625 15.53125 C-21.89702881 11.3725529 -20.54338044 8.27763015 -18 5 C-12.27283378 0.44164322 -7.17662965 -0.87399778 0 0 Z " fill="#154060" transform="translate(90,99)"/>
<path d="M0 0 C0.81130875 -0.00807175 1.62261749 -0.01614349 2.45851135 -0.02445984 C4.17585107 -0.03829712 5.89321825 -0.04902087 7.6105957 -0.05688477 C10.24027251 -0.07412934 12.8687022 -0.11802013 15.49804688 -0.16210938 C17.16535533 -0.17223357 18.83267447 -0.18075053 20.5 -0.1875 C21.28757187 -0.20500809 22.07514374 -0.22251617 22.88658142 -0.24055481 C28.31261714 -0.21893032 28.31261714 -0.21893032 30.81274414 2.05004883 C32.68370145 6.12919996 32.34548434 9.76684976 30.8515625 13.92163086 C28.54781548 16.54402235 28.15736316 16.60897658 24.8515625 16.86938477 C23.19421832 16.89564743 21.53625692 16.89303697 19.87890625 16.8671875 C19.00242432 16.86959946 18.12594238 16.87201141 17.22290039 16.87449646 C15.37023391 16.87351718 13.51753847 16.86010426 11.66503906 16.83520508 C8.82646459 16.8009028 5.99100312 16.81453813 3.15234375 16.83398438 C1.35285131 16.82708589 -0.44663308 16.81741349 -2.24609375 16.8046875 C-3.0961499 16.80964737 -3.94620605 16.81460724 -4.82202148 16.81971741 C-10.67434947 16.70253821 -10.67434947 16.70253821 -13.21484375 14.38647461 C-14.5585808 11.40675124 -14.64618957 9.47645198 -14.18359375 6.23828125 C-10.10156897 0.11524409 -6.96872529 0.06519473 0 0 Z " fill="#1D5874" transform="translate(37.18359375,145.76171875)"/>
<path d="M0 0 C0.73714737 -0.00619858 1.47429474 -0.01239716 2.23377991 -0.01878357 C3.78954755 -0.02587268 5.3453912 -0.02272341 6.90112305 -0.01000977 C9.274704 0.00384524 11.64433083 -0.03020427 14.01757812 -0.06835938 C15.53255304 -0.06931078 17.04753287 -0.06745057 18.5625 -0.0625 C19.62053078 -0.08238731 19.62053078 -0.08238731 20.69993591 -0.10267639 C24.59201291 -0.02958891 26.21613139 0.45889696 29.26782227 2.95336914 C31.49335866 5.74946212 32.43468323 6.99830026 32.34765625 10.56640625 C29.25432292 16.11307292 29.25432292 16.11307292 26.34765625 17.56640625 C21.54985436 17.87278616 16.75167957 17.92272488 11.94506836 17.97143555 C10.34361199 17.99301327 8.74227349 18.02711455 7.14135742 18.07397461 C4.82807992 18.14105035 2.51723826 18.16844121 0.203125 18.1875 C-0.50850296 18.21533066 -1.22013092 18.24316132 -1.95332336 18.27183533 C-4.76542796 18.26025717 -6.99219324 18.08353908 -9.24862671 16.31594849 C-11.84243029 13.40319125 -12.64688174 11.8832031 -12.71484375 7.94140625 C-10.5310068 1.00451242 -6.83432187 -0.0479197 0 0 Z " fill="#205772" transform="translate(209.65234375,145.43359375)"/>
<path d="M0 0 C1.98036112 -0.06335453 3.96083705 -0.12321077 5.94140625 -0.1796875 C7.38664673 -0.24990112 7.38664673 -0.24990112 8.86108398 -0.3215332 C15.6032394 -0.42237363 15.6032394 -0.42237363 18.34301758 1.51245117 C20.73363455 4.21600028 21.57510509 5.81417191 21.50390625 9.4453125 C20.56640625 12.2578125 20.56640625 12.2578125 18.56640625 15.2578125 C15.0571635 16.42756008 11.84984211 16.45718389 8.1953125 16.49609375 C7.47657455 16.5041655 6.75783661 16.51223724 6.01731873 16.52055359 C4.49846797 16.53436797 2.97958651 16.54510194 1.46069336 16.55297852 C-0.85948306 16.57022619 -3.1782464 16.61413602 -5.49804688 16.65820312 C-6.97524996 16.66832788 -8.45246513 16.67684467 -9.9296875 16.68359375 C-10.96735512 16.70985588 -10.96735512 16.70985588 -12.02598572 16.73664856 C-15.39668215 16.72149379 -17.14783888 16.47419965 -19.86743164 14.41479492 C-21.43359375 12.2578125 -21.43359375 12.2578125 -21.99609375 9.3203125 C-21.43359375 6.2578125 -21.43359375 6.2578125 -19.62109375 3.4453125 C-13.69203531 -0.62364917 -6.97512549 0.33152417 0 0 Z " fill="#245D77" transform="translate(48.43359375,179.7421875)"/>
<path d="M0 0 C0.67151596 -0.00145523 1.34303192 -0.00291046 2.03489685 -0.00440979 C3.44770671 -0.00275692 4.86053573 0.00873581 6.27319336 0.02954102 C8.43095538 0.05855827 10.58626629 0.05012785 12.74414062 0.03710938 C23.15597527 0.08426696 23.15597527 0.08426696 26.28881836 1.88842773 C27.87109375 3.49609375 27.87109375 3.49609375 28.18359375 5.65234375 C28.08046875 6.42578125 27.97734375 7.19921875 27.87109375 7.99609375 C27.78859375 8.76953125 27.70609375 9.54296875 27.62109375 10.33984375 C26.60534762 13.26011388 25.5482542 13.9508579 22.87109375 15.49609375 C19.52709961 15.88427734 19.52709961 15.88427734 15.5859375 15.89453125 C14.53968956 15.89883652 14.53968956 15.89883652 13.4723053 15.90322876 C12.00228053 15.90526485 10.53222838 15.89976677 9.06225586 15.88720703 C6.81237342 15.87112077 4.56428053 15.88708162 2.31445312 15.90625 C0.88411062 15.90426796 -0.54623077 15.90042509 -1.9765625 15.89453125 C-3.27601807 15.89114746 -4.57547363 15.88776367 -5.91430664 15.88427734 C-9.12890625 15.49609375 -9.12890625 15.49609375 -11.04467773 14.21728516 C-12.57643438 11.78565167 -12.59231689 9.34983873 -12.72265625 6.53125 C-10.97682584 0.54718654 -5.39732382 -0.0080198 0 0 Z " fill="#19556E" transform="translate(210.12890625,180.50390625)"/>
<path d="M0 0 C0.99 0.495 0.99 0.495 2 1 C0.5489926 2.83913695 -0.91101659 4.6711753 -2.375 6.5 C-3.59316406 8.03140625 -3.59316406 8.03140625 -4.8359375 9.59375 C-5.55007812 10.3878125 -6.26421875 11.181875 -7 12 C-7.66 12 -8.32 12 -9 12 C-9.33 12.99 -9.66 13.98 -10 15 C-11.3153341 15.70151152 -12.65117592 16.36525925 -14 17 C-14.69851074 17.71349609 -14.69851074 17.71349609 -15.41113281 18.44140625 C-17.05551774 20.05445993 -18.48918673 20.92441735 -20.546875 21.9375 C-21.2275 22.27523437 -21.908125 22.61296875 -22.609375 22.9609375 C-23.31578125 23.30382812 -24.0221875 23.64671875 -24.75 24 C-25.4409375 24.34289062 -26.131875 24.68578125 -26.84375 25.0390625 C-30.14532703 26.66502713 -33.4537694 28.20808665 -36.85546875 29.61328125 C-40.07815112 30.85469023 -40.07815112 30.85469023 -42.5625 33.1875 C-47.08596945 35.57260207 -50.64464532 35.26732626 -55.68359375 35.04296875 C-59.29325593 34.9318953 -62.82263519 35.19328315 -66.421875 35.4765625 C-76.44416928 36.18868428 -86.46115005 36.18604756 -96.50512695 36.18530273 C-99.79586743 36.18748895 -103.08627158 36.20571011 -106.37695312 36.22460938 C-118.72835031 36.25629123 -130.76530996 35.72740004 -143 34 C-143 34.66 -143 35.32 -143 36 C-148.14815042 35.54715344 -153.01456687 34.82177674 -158.00390625 33.4765625 C-161.30539022 32.68834128 -164.62774079 32.36131349 -168 32 C-168.33 30.68 -168.66 29.36 -169 28 C-169.86625 27.896875 -170.7325 27.79375 -171.625 27.6875 C-176.38584502 26.71769824 -179.9841719 24.67721873 -184 22 C-184 21.34 -184 20.68 -184 20 C-180.3852856 20.58013935 -177.64207666 21.56109854 -174.4375 23.3125 C-160.01570486 30.72697417 -145.6240488 32.31436837 -129.6875 32.625 C-128.05410926 32.66222327 -126.42072709 32.69982403 -124.78735352 32.73779297 C-120.19179747 32.84053792 -115.59606859 32.92405961 -111 33 C-109.95779297 33.01804688 -108.91558594 33.03609375 -107.84179688 33.0546875 C-102.91224142 33.12766389 -97.98901754 33.11820884 -93.05957031 33.04150391 C-90.71268565 33.00966778 -88.36561953 32.99098024 -86.01855469 32.97802734 C-61.01704146 33.13988459 -61.01704146 33.13988459 -37 27 C-35.95457031 26.59007812 -34.90914062 26.18015625 -33.83203125 25.7578125 C-21.046051 20.04888076 -9.37058644 10.30764509 0 0 Z " fill="#4B829E" transform="translate(236,215)"/>
<path d="M0 0 C1.60566891 2.40850336 2.51832219 4.12550085 3.48046875 6.7734375 C10.5023042 25.70772247 19.06434976 40.32391459 35 53 C34.01 53.495 34.01 53.495 33 54 C32.01 53.67 31.02 53.34 30 53 C30 52.34 30 51.68 30 51 C29.4225 50.773125 28.845 50.54625 28.25 50.3125 C25.42085466 48.66216522 24.01725404 46.56741423 22 44 C20.35360035 42.64172029 18.68704193 41.30745749 17 40 C14.6875 37.875 14.6875 37.875 13 36 C13 35.34 13 34.68 13 34 C12.34 34 11.68 34 11 34 C9.00585364 30.53191937 7.82220715 27.64143455 7.4375 23.6875 C7.293125 22.470625 7.14875 21.25375 7 20 C6.34 19.67 5.68 19.34 5 19 C4.04272134 16.78375485 3.18218062 14.52521086 2.375 12.25 C1.92898438 11.01765625 1.48296875 9.7853125 1.0234375 8.515625 C0.12299371 5.42249748 -0.23061312 3.18003348 0 0 Z " fill="#70A9BB" transform="translate(11,177)"/>
<path d="M0 0 C0.66 0 1.32 0 2 0 C2.02470935 5.21443333 2.04286444 10.42883261 2.05493164 15.64331055 C2.059962 17.41740513 2.06678699 19.19149556 2.07543945 20.96557617 C2.08756174 23.51482161 2.09324126 26.06401226 2.09765625 28.61328125 C2.10281754 29.40712723 2.10797882 30.20097321 2.11329651 31.01887512 C2.11362877 34.27656286 2.03772826 36.88681521 1 40 C-0.32 39.34 -1.64 38.68 -3 38 C-3 36.68 -3 35.36 -3 34 C-2.01 34 -1.02 34 0 34 C0 22.78 0 11.56 0 0 Z " fill="#6AB5BE" transform="translate(235,42)"/>
<path d="M0 0 C0.66 0.33 1.32 0.66 2 1 C0.5489926 2.83913695 -0.91101659 4.6711753 -2.375 6.5 C-3.18710938 7.5209375 -3.99921875 8.541875 -4.8359375 9.59375 C-5.55007812 10.3878125 -6.26421875 11.181875 -7 12 C-7.66 12 -8.32 12 -9 12 C-9.33 12.99 -9.66 13.98 -10 15 C-11.3153341 15.70151152 -12.65117592 16.36525925 -14 17 C-14.41636719 17.44859375 -14.83273438 17.8971875 -15.26171875 18.359375 C-17.58561774 20.55271786 -20.09389972 21.80183768 -22.9375 23.25 C-23.97777344 23.79140625 -25.01804688 24.3328125 -26.08984375 24.890625 C-29.06011094 26.02291478 -30.12310936 26.19234985 -33 25 C-32.35675781 24.68289062 -31.71351563 24.36578125 -31.05078125 24.0390625 C-19.12548595 17.88077876 -9.15206776 9.79058412 0 0 Z " fill="#589DB1" transform="translate(236,215)"/>
<path d="M0 0 C0.33 0 0.66 0 1 0 C1.06945668 9.72692737 1.12278917 19.45379591 1.15543652 29.1809206 C1.17110424 33.69744426 1.19236257 38.21379848 1.22631836 42.73022461 C1.25887255 47.08740597 1.27684468 51.44442418 1.28463173 55.80171776 C1.29018235 57.46554318 1.30102118 59.1293595 1.31719017 60.79311562 C1.33891251 63.12049404 1.34196917 65.44719501 1.34057617 67.7746582 C1.351362 68.46517776 1.36214783 69.15569733 1.3732605 69.86714172 C1.35405586 72.82507788 1.3317169 74.57445652 -0.52128601 76.95158386 C-1.00926163 77.29756119 -1.49723724 77.64353851 -2 78 C-1.93148331 77.38843552 -1.86296661 76.77687103 -1.79237366 76.14677429 C-0.94417045 67.85878681 -0.78180247 59.59217405 -0.68359375 51.26953125 C-0.6629708 49.78309116 -0.64197315 48.29665623 -0.62062073 46.81022644 C-0.56595057 42.93553904 -0.5163033 39.06080368 -0.46777344 35.18603516 C-0.41715109 31.21708001 -0.3616797 27.24819279 -0.30664062 23.27929688 C-0.19973463 15.5195891 -0.09814551 7.75982406 0 0 Z " fill="#82B9C1" transform="translate(257,100)"/>
<path d="M0 0 C0.33 0 0.66 0 1 0 C2.22746865 5.08522727 2.22746865 5.08522727 2 8 C0.66645837 9.80267028 -0.81350078 11.06334121 -2.52734375 12.50390625 C-4.33694508 14.08908199 -4.33694508 14.08908199 -4.875 17.5 C-6.47123216 22.4660556 -9.71767695 24.28122281 -14 27 C-12.54037273 23.95283998 -10.8834831 21.04304964 -9.18164062 18.12548828 C-5.73478765 12.21136394 -2.62221134 6.33701074 0 0 Z " fill="#6BB3C3" transform="translate(252,187)"/>
<path d="M0 0 C3.67370143 0.58622895 6.48275026 1.61324769 9.75 3.375 C14.37786067 5.77231521 19.01067406 7.51766403 24 9 C20.93882432 11.62386487 20.26826873 12 16 12 C15.67 10.68 15.34 9.36 15 8 C13.700625 7.8453125 13.700625 7.8453125 12.375 7.6875 C7.61415498 6.71769824 4.0158281 4.67721873 0 2 C0 1.34 0 0.68 0 0 Z " fill="#538CAF" transform="translate(52,235)"/>
<path d="M0 0 C0 -0.33 0 -0.66 0 -1 C6.02839298 -1.39315606 11.40447021 -0.33683045 17 2 C17.495 2.99 17.495 2.99 18 4 C15 5 15 5 13.11303711 4.0769043 C12.41573486 3.72152588 11.71843262 3.36614746 11 3 C8.66799953 2.71133865 8.66799953 2.71133865 6.19140625 2.76953125 C5.27939453 2.77146484 4.36738281 2.77339844 3.42773438 2.77539062 C2.48220703 2.78763672 1.53667969 2.79988281 0.5625 2.8125 C-0.37916016 2.81314453 -1.32082031 2.81378906 -2.29101562 2.81445312 C-6.68390488 2.84235433 -10.69800612 3.03894176 -15 4 C-14.34 3.67 -13.68 3.34 -13 3 C-13 2.34 -13 1.68 -13 1 C-8.23947038 -0.97387813 -5.03511899 -1.0070238 0 0 Z " fill="#A0DFE1" transform="translate(47,8)"/>
<path d="M0 0 C1.20366211 0.00483398 1.20366211 0.00483398 2.43164062 0.00976562 C3.68170898 0.02233398 3.68170898 0.02233398 4.95703125 0.03515625 C6.22450195 0.04192383 6.22450195 0.04192383 7.51757812 0.04882812 C9.6015928 0.06060222 11.68557102 0.07853735 13.76953125 0.09765625 C13.76953125 0.42765625 13.76953125 0.75765625 13.76953125 1.09765625 C12.06796875 1.11892578 12.06796875 1.11892578 10.33203125 1.140625 C1.81635525 1.36534292 -4.4094031 1.56294542 -11.23046875 7.09765625 C-16.81667565 10.09765625 -16.81667565 10.09765625 -19.23046875 10.09765625 C-19.56046875 11.08765625 -19.89046875 12.07765625 -20.23046875 13.09765625 C-21.22046875 12.43765625 -22.21046875 11.77765625 -23.23046875 11.09765625 C-20.62953993 9.44666295 -18.02419435 7.80277307 -15.41796875 6.16015625 C-14.67998047 5.69158203 -13.94199219 5.22300781 -13.18164062 4.74023438 C-12.46943359 4.29228516 -11.75722656 3.84433594 -11.0234375 3.3828125 C-10.36883545 2.969104 -9.7142334 2.55539551 -9.03979492 2.12915039 C-5.97414119 0.38142579 -3.45383607 -0.02449529 0 0 Z " fill="#E7F9F7" transform="translate(215.23046875,9.90234375)"/>
<path d="M0 0 C9.24 0 18.48 0 28 0 C27.67 0.66 27.34 1.32 27 2 C17.89682119 3.80030969 9.02760825 2.63769205 0 1 C0 0.67 0 0.34 0 0 Z " fill="#5B8FA9" transform="translate(97,248)"/>
<path d="M0 0 C-0.58007812 0.24234375 -1.16015625 0.4846875 -1.7578125 0.734375 C-5.5177212 2.34753715 -8.82842735 3.87888989 -12.1875 6.25 C-15.42031848 8.2615315 -17.26262858 8.35594014 -21 8 C-19.71836753 5.43673506 -18.57214871 5.17583941 -16 4 C-15.4225 3.690625 -14.845 3.38125 -14.25 3.0625 C-12.183286 2.08655172 -10.11641199 1.17474192 -8 0.3125 C-7.34 0.04050781 -6.68 -0.23148438 -6 -0.51171875 C-3.65456399 -1.08433496 -2.26562596 -0.75352292 0 0 Z " fill="#4C92B1" transform="translate(205,242)"/>
<path d="M0 0 C5.76774721 4.89004655 11.39476999 9.92484204 17 15 C16.01 15.495 16.01 15.495 15 16 C14.01 15.67 13.02 15.34 12 15 C12 14.34 12 13.68 12 13 C11.4225 12.773125 10.845 12.54625 10.25 12.3125 C7.42591529 10.66511725 6.0023037 8.56545162 4 6 C3.2575 5.46375 2.515 4.9275 1.75 4.375 C1.1725 3.92125 0.595 3.4675 0 3 C0 2.01 0 1.02 0 0 Z " fill="#5489A3" transform="translate(29,215)"/>
<path d="M0 0 C3.91420857 1.13077136 6.20945732 2.08812937 9 5 C10.2684375 5.495 10.2684375 5.495 11.5625 6 C14 7 14 7 16 10 C15.67 10.99 15.34 11.98 15 13 C15 12.34 15 11.68 15 11 C14.45859375 10.9278125 13.9171875 10.855625 13.359375 10.78125 C10.05033546 9.68554154 7.91476302 7.72768549 5.25 5.5 C4.26515625 4.6853125 3.2803125 3.870625 2.265625 3.03125 C1.51796875 2.3609375 0.7703125 1.690625 0 1 C0 0.67 0 0.34 0 0 Z " fill="#2D4A61" transform="translate(112,162)"/>
<path d="M0 0 C0.66 0.33 1.32 0.66 2 1 C0.8856463 4.34306111 -0.64854629 5.46778962 -3.5625 7.1875 C-5.97890867 8.78172813 -6.85536225 9.50623665 -7.6796875 12.3203125 C-7.91192124 14.56523864 -8.03440129 16.74425808 -8 19 C-8.33 19 -8.66 19 -9 19 C-9.59048399 15.50812552 -9.73608061 12.47834171 -9 9 C-6.38643434 5.52034046 -3.35537562 2.7562014 0 0 Z " fill="#EDF8FA" transform="translate(150,165)"/>
<path d="M0 0 C2.97 0 5.94 0 9 0 C9 0.33 9 0.66 9 1 C10.06541016 1.18175781 10.06541016 1.18175781 11.15234375 1.3671875 C12.07144531 1.53476563 12.99054688 1.70234375 13.9375 1.875 C15.31228516 2.11863281 15.31228516 2.11863281 16.71484375 2.3671875 C17.46894531 2.57601563 18.22304687 2.78484375 19 3 C19.33 3.66 19.66 4.32 20 5 C19.13713379 4.76228882 19.13713379 4.76228882 18.25683594 4.51977539 C16.09060223 4.02086674 14.10677317 3.80111676 11.890625 3.68359375 C11.13652344 3.64169922 10.38242188 3.59980469 9.60546875 3.55664062 C8.43951172 3.49766602 8.43951172 3.49766602 7.25 3.4375 C6.06083984 3.37272461 6.06083984 3.37272461 4.84765625 3.30664062 C2.89862185 3.20097009 0.94933252 3.10002034 -1 3 C-0.67 2.01 -0.34 1.02 0 0 Z " fill="#9CD6DD" transform="translate(213,7)"/>
<path d="M0 0 C2 0 2 0 3.625 1.375 C5 3 5 3 5 5 C5.99 5 6.98 5 8 5 C8.99 6.485 8.99 6.485 10 8 C12.55183404 9.20450304 12.55183404 9.20450304 15 10 C15 10.66 15 11.32 15 12 C8.68196628 10.70399308 4.30628414 6.59336975 0 2 C0 1.34 0 0.68 0 0 Z " fill="#314F63" transform="translate(89,194)"/>
<path d="M0 0 C3.25524265 3.02272532 5.61820737 6.25718301 8 10 C7.34 10.66 6.68 11.32 6 12 C4.62437146 10.71034824 3.29233607 9.37310707 2 8 C2 7.34 2 6.68 2 6 C1.34 6 0.68 6 0 6 C-0.38218767 4.34385343 -0.71395102 2.67542976 -1 1 C-0.67 0.67 -0.34 0.34 0 0 Z " fill="#609DB8" transform="translate(22,205)"/>
<path d="M0 0 C0.33 0 0.66 0 1 0 C1 2.76337926 0.97639255 4.4654266 0 7 C-2.43667911 9.37486061 -5.11604403 11.20656041 -8 13 C-6.53400783 9.91220974 -4.82973607 7.09532795 -2.9375 4.25 C-2.41027344 3.45078125 -1.88304687 2.6515625 -1.33984375 1.828125 C-0.89769531 1.22484375 -0.45554688 0.6215625 0 0 Z " fill="#62A6B5" transform="translate(246,201)"/>
<path d="M0 0 C0.33 0 0.66 0 1 0 C0.22095672 11.52164009 0.22095672 11.52164009 -2 17 C-3.24659153 13.37434999 -2.78926902 10.54787577 -2.125 6.8125 C-1.94195312 5.74644531 -1.75890625 4.68039063 -1.5703125 3.58203125 C-1 1 -1 1 0 0 Z " fill="#EFF9F8" transform="translate(255,166)"/>
<path d="M0 0 C1.98 0.99 1.98 0.99 4 2 C3.67 4.97 3.34 7.94 3 11 C2.01 10.67 1.02 10.34 0 10 C0 6.7 0 3.4 0 0 Z " fill="#102F54" transform="translate(126,173)"/>
<path d="M0 0 C0.66 0.33 1.32 0.66 2 1 C-0.97 4.3 -3.94 7.6 -7 11 C-7.66 10.34 -8.32 9.68 -9 9 C-6.03 6.03 -3.06 3.06 0 0 Z " fill="#68A5B0" transform="translate(236,215)"/>
<path d="M0 0 C0.33 0 0.66 0 1 0 C1.103125 1.11375 1.20625 2.2275 1.3125 3.375 C1.539375 4.57125 1.76625 5.7675 2 7 C2.99 7.66 3.98 8.32 5 9 C4.67 9.99 4.34 10.98 4 12 C2.68 12.33 1.36 12.66 0 13 C0 8.71 0 4.42 0 0 Z " fill="#39A4B1" transform="translate(30,68)"/>
<path d="M0 0 C0 0.99 0 1.98 0 3 C-2.046875 4.640625 -2.046875 4.640625 -4.75 6.25 C-5.63171875 6.79140625 -6.5134375 7.3328125 -7.421875 7.890625 C-10 9 -10 9 -12.328125 8.671875 C-12.87984375 8.45015625 -13.4315625 8.2284375 -14 8 C-13.24074219 7.59007812 -12.48148438 7.18015625 -11.69921875 6.7578125 C-10.70535156 6.21898437 -9.71148437 5.68015625 -8.6875 5.125 C-7.20830078 4.32449219 -7.20830078 4.32449219 -5.69921875 3.5078125 C-2.90413542 1.99277874 -2.90413542 1.99277874 0 0 Z " fill="#5E97AB" transform="translate(217,232)"/>
<path d="M0 0 C1.28317892 3.84953676 1.06643637 6.94738135 1 11 C1.66 11.33 2.32 11.66 3 12 C2.01 12 1.02 12 0 12 C-2.31332486 8.53001271 -2.33957563 7.07490752 -2 3 C-1.34 2.01 -0.68 1.02 0 0 Z " fill="#3F5E70" transform="translate(25,149)"/>
<path d="M0 0 C0.99386719 0.00902344 1.98773438 0.01804687 3.01171875 0.02734375 C4.15060547 0.04474609 4.15060547 0.04474609 5.3125 0.0625 C5.3125 0.3925 5.3125 0.7225 5.3125 1.0625 C-2.1125 2.5475 -2.1125 2.5475 -9.6875 4.0625 C-9.3575 3.0725 -9.0275 2.0825 -8.6875 1.0625 C-5.53819107 0.01273036 -3.29935544 -0.03881595 0 0 Z " fill="#3E8FA3" transform="translate(46.6875,29.9375)"/>
<path d="M0 0 C4.75481646 0.57634139 7.97048212 2.55068521 12 5 C12 5.66 12 6.32 12 7 C12.66 7.33 13.32 7.66 14 8 C10.41453004 8 9.34738441 7.12884133 6.4375 5.125 C5.65246094 4.59132813 4.86742187 4.05765625 4.05859375 3.5078125 C2 2 2 2 0 0 Z " fill="#A2D3D5" transform="translate(234,12)"/>
<path d="M0 0 C1 3 1 3 0 6 C-2.5625 7.1875 -2.5625 7.1875 -5 8 C-5 5 -5 5 -2.5 2.3125 C-1.675 1.549375 -0.85 0.78625 0 0 Z " fill="#EAF1F5" transform="translate(176,197)"/>
<path d="M0 0 C1.43905299 2.87810599 1.55482518 5.82812939 2 9 C2.33 9.99 2.66 10.98 3 12 C-0.875 10.125 -0.875 10.125 -2 9 C-2.26293056 4.96839809 -2.29404844 3.44107266 0 0 Z " fill="#3E5C71" transform="translate(29,183)"/>
<path d="M0 0 C-1 2 -2 4 -3 6 C-2.34 6.66 -1.68 7.32 -1 8 C-2.65 8 -4.3 8 -6 8 C-5.62403791 5.21788056 -5.32681541 3.4120716 -3.5625 1.1875 C-2 0 -2 0 0 0 Z " fill="#5E9BA9" transform="translate(37,33)"/>
<path d="M0 0 C1.65 0 3.3 0 5 0 C5 0.66 5 1.32 5 2 C5.99 2.33 6.98 2.66 8 3 C4.67465243 4.10844919 2.37817425 3.84454356 -1 3 C-0.67 2.01 -0.34 1.02 0 0 Z " fill="#4E87A5" transform="translate(74,245)"/>
<path d="M0 0 C-1.4096347 0.70180531 -2.82807641 1.38593958 -4.25 2.0625 C-5.03890625 2.44535156 -5.8278125 2.82820312 -6.640625 3.22265625 C-9.25993522 4.08564091 -10.44855176 3.93045933 -13 3 C-11.5903653 2.29819469 -10.17192359 1.61406042 -8.75 0.9375 C-7.96109375 0.55464844 -7.1721875 0.17179688 -6.359375 -0.22265625 C-3.74006478 -1.08564091 -2.55144824 -0.93045933 0 0 Z " fill="#4E89A5" transform="translate(205,242)"/>
<path d="M0 0 C3.63 0 7.26 0 11 0 C11 0.33 11 0.66 11 1 C9.37787941 1.52973311 7.75218416 2.04853107 6.125 2.5625 C5.22007813 2.85253906 4.31515625 3.14257812 3.3828125 3.44140625 C1 4 1 4 -1 3 C-0.67 2.01 -0.34 1.02 0 0 Z " fill="#25516A" transform="translate(27,147)"/>
<path d="M0 0 C0.99 0 1.98 0 3 0 C3 1.32 3 2.64 3 4 C3.99 4.33 4.98 4.66 6 5 C5.67 5.99 5.34 6.98 5 8 C2.5 5.6875 2.5 5.6875 0 3 C0 2.01 0 1.02 0 0 Z " fill="#284255" transform="translate(166,121)"/>
<path d="M0 0 C0 0.66 0 1.32 0 2 C-3.63 2.66 -7.26 3.32 -11 4 C-10.34 3.67 -9.68 3.34 -9 3 C-9 2.34 -9 1.68 -9 1 C-3.375 -1.125 -3.375 -1.125 0 0 Z " fill="#94D2D6" transform="translate(43,8)"/>
<path d="M0 0 C2.70931419 0.15481795 4.46584039 0.48172081 6.4453125 2.40234375 C7.67679642 3.89771708 8.8429837 5.4462924 10 7 C5.56541027 5.6062718 3.12621626 3.39417765 0 0 Z " fill="#E5F1F6" transform="translate(42,226)"/>
<path d="M0 0 C2.475 0.495 2.475 0.495 5 1 C5.33 2.32 5.66 3.64 6 5 C3.5625 4.1875 3.5625 4.1875 1 3 C0.67 2.01 0.34 1.02 0 0 Z " fill="#579FAB" transform="translate(229,36)"/>
<path d="M0 0 C2.25 -0.3125 2.25 -0.3125 5 0 C7.3125 2.5 7.3125 2.5 9 5 C7.35 4.67 5.7 4.34 4 4 C4 3.34 4 2.68 4 2 C2.68 1.34 1.36 0.68 0 0 Z " fill="#5891AC" transform="translate(37,226)"/>
<path d="M0 0 C4.35535069 1.16142685 6.64619703 2.07699505 9 6 C4.58763974 6 3.21615077 3.9302707 0 1 C0 0.67 0 0.34 0 0 Z " fill="#435C6A" transform="translate(112,162)"/>
<path d="M0 0 C0.66 0.33 1.32 0.66 2 1 C1.01 2.485 1.01 2.485 0 4 C-5.75 3.25 -5.75 3.25 -8 1 C-7.05125 1.020625 -6.1025 1.04125 -5.125 1.0625 C-2.09333717 1.22551826 -2.09333717 1.22551826 0 0 Z " fill="#AAE2DF" transform="translate(183,28)"/>
<path d="M0 0 C1.64666203 0.1135629 3.29236082 0.24117381 4.9375 0.375 C5.85402344 0.44460938 6.77054688 0.51421875 7.71484375 0.5859375 C8.84599609 0.79089844 8.84599609 0.79089844 10 1 C10.33 1.66 10.66 2.32 11 3 C7.59068103 4.13643966 6.99664544 3.86747764 3.8125 2.5625 C3.09707031 2.27503906 2.38164063 1.98757813 1.64453125 1.69140625 C1.10183594 1.46324219 0.55914062 1.23507812 0 1 C0 0.67 0 0.34 0 0 Z " fill="#8DD7DB" transform="translate(54,9)"/>
<path d="M0 0 C0.33 0 0.66 0 1 0 C1.23053497 2.84326464 1.35903101 4.46145349 -0.25 6.875 C-2 8 -2 8 -4.1875 7.6875 C-4.785625 7.460625 -5.38375 7.23375 -6 7 C-5.01 6.67 -4.02 6.34 -3 6 C-1.29144978 2.99992729 -1.29144978 2.99992729 0 0 Z " fill="#DAEBEB" transform="translate(70,188)"/>
</svg>
