<?xml version="1.0" standalone="no"?><!DOCTYPE svg PUBLIC "-//W3C//DTD SVG 1.1//EN" "http://www.w3.org/Graphics/SVG/1.1/DTD/svg11.dtd">
<svg t="1723809395967" class="icon" viewBox="0 0 1024 1024" version="1.1" xmlns="http://www.w3.org/2000/svg" p-id="5221"
     id="mx_n_1723809395968"
     width="200" height="200"><path d="M856 509.85c0 236.75-62.04 300.07-298.79 300.07S259.7 746.6 259.7 509.85s60.76-298.79 297.51-298.79S856 273.1 856 509.85z" fill="#FEC773" p-id="5222"></path><path d="M303.45 509.85c0-229.28 56.99-294.71 275.64-298.6-7.12-0.13-14.41-0.19-21.88-0.19-236.75 0-297.51 62.04-297.51 298.79s60.76 300.07 297.51 300.07c7.47 0 14.76-0.06 21.88-0.19-218.65-3.97-275.64-70.59-275.64-299.88z" fill="#F29816" p-id="5223"></path><path d="M557.21 819.92c-5.52 0-10-4.48-10-10s4.48-10 10-10c61.52 0 107.34-4.23 144.17-13.3 37.62-9.27 66.05-23.99 86.91-45 20.84-20.99 35.43-49.57 44.6-87.36C841.84 617.38 846 571.5 846 509.85s-4.17-107.44-13.11-144.2c-9.16-37.64-23.74-66.07-44.58-86.91-20.84-20.84-49.26-35.42-86.91-44.58-36.76-8.94-82.58-13.11-144.2-13.11-52.41 0-94.2 3.13-127.75 9.58-34.96 6.72-62.34 17.24-83.72 32.17-41.9 29.25-64.2 78.44-72.29 159.47-0.55 5.5-5.44 9.5-10.94 8.96-5.5-0.55-9.51-5.45-8.96-10.94 8.72-87.36 33.63-140.98 80.74-173.88 45.53-31.79 112.2-45.35 222.92-45.35 242.42 0 308.79 66.38 308.79 308.79 0 63.27-4.35 110.66-13.68 149.12-10.05 41.44-26.36 73.09-49.84 96.74-23.52 23.69-55.03 40.15-96.32 50.32-38.45 9.47-85.78 13.88-148.96 13.88z" fill="#333333" p-id="5224"></path><path d="M208.71 808.8c-5.39-7.23-4.41-17.37 2.25-23.44l129.38-117.79c15.18-13.82 38.97-11.53 51.24 4.93 12.27 16.46 7.66 39.92-9.92 50.51l-149.85 90.33c-7.72 4.66-17.72 2.69-23.11-4.54z" fill="#FE4933" p-id="5225"></path><path d="M410.64 832.01c4.9 6.56 13.84 8.58 21.08 4.76l142.14-75.09c24.98-13.2 30.71-46.46 11.58-67.25l-54.2-58.93c-5.22-5.67-5.7-14.24-1.16-20.47l29.96-41.05c4.93-6.76 14.45-8.18 21.14-3.16l44.89 33.67c8.82 6.62 20.21 8.8 30.85 5.93l95.83-25.91c8.79-2.38 14.4-10.96 13.05-19.96-1.35-8.95-9.16-15.5-18.21-15.25l-79.85 2.18c-4.43 0.12-8.75-1.4-12.13-4.27l-43.01-36.49a88.186 88.186 0 0 1-12.83-13.44l-47.16-61.15a45.463 45.463 0 0 0-17.37-13.71l-63.95-28.71a59.083 59.083 0 0 0-35.79-4.04l-111.3 22.26c-8.51 1.7-14.3 9.64-13.32 18.26 0.96 8.44 8.1 14.82 16.6 14.82h109.57c3.76 0 7.47 0.9 10.81 2.62l35.37 18.24c8.99 4.64 11.89 16.11 6.19 24.46l-58.64 85.85c-17.88 26.19-14.3 61.45 8.49 83.5l62.85 60.81c6.66 6.44 5.99 17.3-1.41 22.88l-86.76 65.43c-7.3 5.51-8.78 15.88-3.31 23.21z" fill="#FE4933" p-id="5226"></path><path d="M663.42 402m-64 0a64 64 0 1 0 128 0 64 64 0 1 0-128 0Z" fill="#FE4933" p-id="5227"></path><path d="M239.97 585.67m21.5 0l64.5 0q21.5 0 21.5 21.5l0 0q0 21.5-21.5 21.5l-64.5 0q-21.5 0-21.5-21.5l0 0q0-21.5 21.5-21.5Z" fill="#FE4933" p-id="5228"></path><path d="M165.48 483m30.5 0l123.32 0q30.5 0 30.5 30.5l0 0q0 30.5-30.5 30.5l-123.32 0q-30.5 0-30.5-30.5l0 0q0-30.5 30.5-30.5Z" fill="#FE4933" p-id="5229"></path><path d="M222.73 825.89c-8.42 0-16.66-3.88-22.05-11.11a27.439 27.439 0 0 1 3.54-36.81L333.6 660.18c9.32-8.48 21.86-12.66 34.4-11.45 12.54 1.21 24.06 7.69 31.59 17.8s10.46 22.99 8.03 35.36a44.821 44.821 0 0 1-20.81 29.7l-149.85 90.33a27.504 27.504 0 0 1-14.24 3.98z m140.91-157.37c-6.15 0-11.96 2.25-16.57 6.45L217.69 792.76a7.51 7.51 0 0 0-0.97 10.07 7.51 7.51 0 0 0 9.93 1.95l149.85-90.33c6.06-3.65 10.14-9.48 11.5-16.42 1.36-6.94-0.21-13.88-4.44-19.55s-10.43-9.17-17.47-9.84c-0.82-0.08-1.64-0.12-2.45-0.12z" fill="#333333" p-id="5230"></path><path d="M423.91 848.72c-8.15 0-16.08-3.77-21.28-10.74-8.73-11.71-6.35-28.38 5.31-37.17l86.76-65.43a4.991 4.991 0 0 0 2.01-3.74c0.05-0.87-0.07-2.55-1.54-3.96l-62.85-60.81a74.936 74.936 0 0 1-9.8-96.33l58.64-85.85a6.741 6.741 0 0 0 0.98-5.53c-0.28-1.12-1.11-3.17-3.5-4.4l-35.37-18.24c-1.92-0.99-4.07-1.51-6.23-1.51H327.47c-13.59 0-25-10.19-26.53-23.7-1.57-13.9 7.58-26.45 21.29-29.19l111.3-22.26c14.18-2.84 28.65-1.2 41.84 4.72l63.95 28.71a55.618 55.618 0 0 1 21.2 16.72l47.16 61.15c3.36 4.35 7.18 8.36 11.38 11.92l43.01 36.49a8.033 8.033 0 0 0 5.39 1.9l79.85-2.18c14.07-0.4 26.28 9.83 28.37 23.76 2.11 14.03-6.63 27.4-20.32 31.1l-95.83 25.91c-13.71 3.71-28.1 0.95-39.46-7.58l-44.89-33.67a5.044 5.044 0 0 0-3.75-0.95c-0.77 0.12-2.24 0.53-3.31 2.01l-29.96 41.05a6.17 6.17 0 0 0 0.44 7.8l54.2 58.93c11.23 12.21 16.06 28.59 13.24 44.94-2.82 16.35-12.84 30.17-27.51 37.92L436.39 845.6c-3.99 2.1-8.27 3.12-12.49 3.12z m-5.25-22.7a6.594 6.594 0 0 0 8.4 1.9l142.14-75.09c9.14-4.83 15.39-13.44 17.15-23.63 1.75-10.19-1.25-20.4-8.25-28.01l-54.2-58.93c-8.42-9.15-9.21-23.08-1.88-33.13l29.96-41.05c3.98-5.45 9.84-9 16.51-10 6.67-1 13.32 0.68 18.71 4.73l44.89 33.67c6.41 4.8 14.51 6.36 22.24 4.27l95.83-25.91a7.92 7.92 0 0 0 5.77-8.82c-0.59-3.95-4.06-6.83-8.05-6.74l-79.85 2.18c-6.91 0.2-13.61-2.17-18.88-6.64l-43.01-36.49a99.09 99.09 0 0 1-14.28-14.96l-47.16-61.15a35.484 35.484 0 0 0-13.55-10.69l-63.95-28.71c-9.37-4.21-19.65-5.37-29.73-3.35l-111.3 22.26a6.66 6.66 0 0 0-5.34 7.33 6.7 6.7 0 0 0 6.66 5.95h109.57c5.33 0 10.66 1.29 15.4 3.74l35.37 18.24a26.873 26.873 0 0 1 13.72 17.27c1.89 7.45 0.48 15.37-3.86 21.72l-58.64 85.85a54.969 54.969 0 0 0 7.19 70.67l62.85 60.81c5.28 5.1 8.04 12.24 7.59 19.56s-4.07 14.07-9.93 18.49l-86.76 65.43c-2.9 2.19-3.49 6.33-1.32 9.25z" fill="#333333" p-id="5231"></path><path d="M663.42 476.01c-40.81 0-74-33.2-74-74s33.2-74 74-74 74 33.2 74 74-33.2 74-74 74z m0-128.01c-29.78 0-54 24.23-54 54s24.23 54 54 54 54-24.23 54-54-24.23-54-54-54zM325.97 638.67h-64.5c-17.37 0-31.5-14.13-31.5-31.5s14.13-31.5 31.5-31.5h64.5c17.37 0 31.5 14.13 31.5 31.5s-14.13 31.5-31.5 31.5z m-64.5-43c-6.34 0-11.5 5.16-11.5 11.5s5.16 11.5 11.5 11.5h64.5c6.34 0 11.5-5.16 11.5-11.5s-5.16-11.5-11.5-11.5h-64.5zM319.31 554H195.98c-22.33 0-40.5-18.17-40.5-40.5s18.17-40.5 40.5-40.5h123.33c22.33 0 40.5 18.17 40.5 40.5s-18.17 40.5-40.5 40.5z m-123.33-61c-11.3 0-20.5 9.2-20.5 20.5s9.2 20.5 20.5 20.5h123.33c11.3 0 20.5-9.2 20.5-20.5s-9.2-20.5-20.5-20.5H195.98z" fill="#333333" p-id="5232"></path></svg>