<?xml version="1.0" standalone="no"?><!DOCTYPE svg PUBLIC "-//W3C//DTD SVG 1.1//EN" "http://www.w3.org/Graphics/SVG/1.1/DTD/svg11.dtd"><svg t="1723808283122" class="icon" viewBox="0 0 1024 1024" version="1.1" xmlns="http://www.w3.org/2000/svg" p-id="4410" id="mx_n_1723808283123" xmlns:xlink="http://www.w3.org/1999/xlink" width="200" height="200"><path d="M708.32 806.37H233.01c-24 0-43.46-19.46-43.46-43.46v-317.4h562.22V762.9c0 24-19.46 43.46-43.46 43.46z" fill="#EA5959" p-id="4411"></path><path d="M226.44 455.95V752.9s-1.06 19.25 13.75 19.25h464.24s36.54-6.13 47.35-26.33c0 0 2.25 49.27-46.35 60.01H240.6s-51.05-6.57-51.05-40.75V447.63l36.88 8.32z" fill="#CE4141" p-id="4412"></path><path d="M468.44 630.24h8.68c40.63 0 73.62 32.99 73.62 73.62v88.95H394.83v-88.95c0-40.63 32.99-73.62 73.62-73.62z" fill="#FFD9D9" p-id="4413"></path><path d="M254.04 457.72h433.45c66.32 0 116.24-40.39 138.54-97.63 2.43-6.25-4.78-11.96-11.04-9.56a93.026 93.026 0 0 1-34.03 5.89c-31.27-0.04-61.4-3.79-84.13-25.2-18.5-17.4-31.01-52.42-36.01-76.99-1.95-9.56-9.86-17.22-19.57-17.22H300.28c-9.75 0-17.66 7.65-19.57 17.22-5 24.65-17.58 59.74-36.16 77.14-22.84 21.45-53.05 25.12-84.42 25.01a90.93 90.93 0 0 1-33.33-5.74c-6.33-2.35-13.61 3.38-11.07 9.67 22.7 57.13 72.84 97.41 138.32 97.41z" fill="#FDBC2C" p-id="4414"></path><path d="M290.84 254.79S277.92 386.02 174.52 389c0 0 21.87 31.81 65.62 34.8H718.1s49.95-6.96 95.68-61.64c0 0-15.75 69.77-98.34 93.04H242.56s-92.09-2.23-124.8-102.81c0 0 68.76 15.96 97.06-5.03 0 0 55.15-41.87 76.02-92.57z" fill="#F29816" p-id="4415"></path><path d="M687.49 467.72H254.04c-33.45 0-64.95-10.1-91.1-29.21-24.8-18.12-44.34-43.89-56.51-74.51-2.52-6.24-1.1-13.21 3.71-18.16 5.24-5.39 13.15-7.18 20.15-4.58a80.633 80.633 0 0 0 29.68 5.11h0.2c27.84 0.12 56.49-2.54 77.54-22.3 15.89-14.88 28.12-46.8 33.2-71.84 2.92-14.61 15.28-25.23 29.37-25.23h340.97c14.04 0 26.39 10.61 29.37 25.22 5.09 25 17.29 56.87 33.07 71.71 4.02 3.78 4.22 10.11 0.43 14.14-3.78 4.02-10.11 4.22-14.14 0.43-20.27-19.07-33.66-56.24-38.96-82.28-0.93-4.58-4.59-9.21-9.77-9.21H300.28c-5.21 0-8.85 4.62-9.76 9.18-5.3 26.12-18.73 63.37-39.13 82.48-26.19 24.59-60.79 27.82-91.2 27.72-11.34 0.17-22.5-1.54-33.23-5.08 10.86 25.08 27.3 46.11 47.78 61.07 22.7 16.59 50.13 25.36 79.3 25.36h433.45c57.02 0 104.25-32.23 127.29-86.52a102.25 102.25 0 0 1-33.9 5.21c-9.4-0.01-17.55-0.36-24.92-1.07-5.5-0.53-9.53-5.41-9-10.91 0.53-5.5 5.41-9.52 10.91-9 6.75 0.65 14.31 0.97 23.1 0.98h0.15c10.39 0.17 20.61-1.6 30.37-5.25 6.83-2.61 14.69-0.9 19.94 4.38 4.87 4.89 6.37 11.86 3.92 18.17-11.98 30.75-31.4 56.59-56.17 74.73-26.16 19.16-57.86 29.28-91.69 29.28z m131.07-107.85h-0.03 0.03zM125 356.57v0z" fill="#333333" p-id="4416"></path><path d="M473.02 638.65s-47.77 21.41-47.77 57.36v103.77h-30.16V694.76s18.9-65.89 77.93-56.12z" fill="#FFC0C0" p-id="4417"></path><path d="M639.71 813.71H240.6c-32.37 0-58.7-26.33-58.7-58.7V496.54c0-5.52 4.48-10 10-10s10 4.48 10 10v258.48c0 21.34 17.36 38.7 38.7 38.7h399.11c5.52 0 10 4.48 10 10s-4.48 10-10 10zM754.13 527.36c-5.52 0-10-4.48-10-10v-74.5c0-5.52 4.48-10 10-10s10 4.48 10 10v74.5c0 5.52-4.48 10-10 10z" fill="#333333" p-id="4418"></path><path d="M395.08 800.69c-5.52 0-10-4.48-10-10v-84.61c0-48.5 39.46-87.96 87.96-87.96S561 657.58 561 706.08v50.2c0 5.52-4.48 10-10 10s-10-4.48-10-10v-50.2c0-37.47-30.48-67.96-67.96-67.96s-67.96 30.48-67.96 67.96v84.61c0 5.52-4.48 10-10 10z" fill="#333333" p-id="4419"></path><path d="M835.28 610.57c-9.34-9.34-11.02-23.43-5.04-34.49 2.15-3.97 1.43-8.88-1.76-12.07l-22.75-22.75c-3.99-3.99-10.46-3.99-14.45 0L614.3 718.24c-3.99 3.99-3.99 10.46 0 14.45l22.75 22.75c3.19 3.19 8.1 3.91 12.07 1.76 11.05-5.98 25.15-4.3 34.49 5.04 9.34 9.34 11.02 23.43 5.04 34.49a10.202 10.202 0 0 0 1.76 12.07l22.75 22.75c3.99 3.99 10.46 3.99 14.45 0l176.98-176.98c3.99-3.99 3.99-10.46 0-14.45l-22.75-22.75c-3.19-3.19-8.1-3.91-12.07-1.76-11.05 5.98-25.15 4.3-34.49-5.04z" fill="#FFF6E6" p-id="4420"></path><path d="M639.08 703.4l17.39 17.39s25.29-9.15 47.76 13.31c0 0 23.96 19.47 20.22 45.68l5.24 5.24 159.9-159.9 20.93 20.93-188.33 188.33-28.68-28.68s2.48-25.93-15.49-43.9c0 0-20.37-21.06-37.39-4.04l-28.65-28.65 27.1-25.71z" fill="#F8E0BB" p-id="4421"></path><path d="M720.38 844.55c-5.4 0-10.48-2.1-14.3-5.92l-22.75-22.75c-6.27-6.27-7.71-16.1-3.49-23.9 4-7.39 2.64-16.71-3.31-22.66-5.95-5.95-15.27-7.31-22.66-3.31-7.8 4.22-17.63 2.78-23.9-3.49l-22.75-22.75c-7.88-7.88-7.88-20.71 0-28.59L784.2 534.2c3.82-3.82 8.9-5.92 14.3-5.92s10.48 2.1 14.3 5.92l22.75 22.75c6.27 6.27 7.71 16.1 3.49 23.9-4 7.39-2.64 16.71 3.31 22.66 5.95 5.95 15.27 7.31 22.66 3.31 7.8-4.22 17.63-2.79 23.9 3.49l22.75 22.75c3.82 3.82 5.92 8.9 5.92 14.3s-2.1 10.48-5.92 14.3L734.68 838.64a20.09 20.09 0 0 1-14.3 5.92z m-57.5-100.8c10.19 0 20.3 3.93 27.79 11.42 12.16 12.16 14.94 31.2 6.76 46.32-0.04 0.08-0.03 0.18 0.04 0.24l22.75 22.75c0.06 0.06 0.25 0.06 0.31 0L897.51 647.5s0.06-0.06 0.06-0.15-0.04-0.12-0.06-0.15l-22.75-22.75a0.213 0.213 0 0 0-0.24-0.04c-15.11 8.18-34.16 5.4-46.32-6.76-12.16-12.16-14.94-31.2-6.76-46.32 0.04-0.08 0.03-0.18-0.04-0.24l-22.75-22.75c-0.06-0.06-0.25-0.06-0.31 0L621.36 725.32c-0.08 0.08-0.08 0.22 0 0.31l22.75 22.75a0.2 0.2 0 0 0 0.24 0.04c5.8-3.14 12.18-4.66 18.52-4.66z" fill="#333333" p-id="4422"></path><path d="M740.92 753.83c-2.73 0-5.45-1.11-7.42-3.3-4.94-5.47-47.53-54.25-20.62-81.16 1.35-1.35 8.85-8.12 23.38-8.34 17.37-0.27 37.19 8.96 58.9 27.42a10 10 0 0 1 1.14 14.1 10 10 0 0 1-14.1 1.14c-37.57-31.93-54.06-20.96-55.37-19.99-10.23 10.83 10.43 41.17 21.5 53.43 3.7 4.1 3.38 10.42-0.72 14.12a9.948 9.948 0 0 1-6.7 2.58z m-13.9-70.32l-0.12 0.12 0.12-0.12z" fill="#333333" p-id="4423"></path><path d="M820.85 673.8c-2.56 0-5.12-0.98-7.07-2.93-16.94-16.94-26.56-18.17-29.9-17.92-2.05 0.16-3.43 1.02-3.44 1.03-0.3 0.41-0.63 0.8-0.99 1.16-1.39 1.39-0.33 4.25-0.32 4.28l-0.08-0.18-18.38 7.88c-2.36-5.5-4.06-17 4.23-25.71 1.9-2.25 7.44-7.63 17.45-8.4 13.47-1.04 28.8 6.95 45.57 23.72 3.91 3.91 3.91 10.24 0 14.14a9.973 9.973 0 0 1-7.07 2.93z" fill="#333333" p-id="4424"></path></svg>